<svg width="70" height="72" viewBox="0 0 70 72" fill="none" xmlns="http://www.w3.org/2000/svg">
<g clip-path="url(#clip0_837_574)">
<path d="M51.2271 64.0657C51.0282 64.2747 50.7597 64.3942 50.4913 64.3942H8.52121C7.9644 64.3942 7.51697 63.9462 7.51697 63.3887V11.3601C7.51697 10.8025 7.96441 10.3546 8.52121 10.3546H37.5057V21.3655C37.5057 23.0181 38.848 24.3621 40.4986 24.3621H51.4955V28.6531C51.4955 29.2006 51.943 29.6486 52.4899 29.6486C53.0367 29.6486 53.4842 29.2006 53.4842 28.6531V23.3665C53.4842 23.2371 53.4544 23.1077 53.4046 22.9882C53.3549 22.8688 53.2853 22.7592 53.1859 22.6597L39.1961 8.65219C39.1066 8.56259 38.9972 8.48294 38.868 8.43316C38.7486 8.38338 38.6194 8.35352 38.4901 8.35352H8.5212C6.8706 8.35352 5.52832 9.69756 5.52832 11.3502V63.3788C5.52832 65.0315 6.87067 66.3754 8.5212 66.3754H50.4913C51.3066 66.3754 52.1021 66.027 52.6689 65.4296C53.0467 65.0314 53.0268 64.4042 52.6291 64.0259C52.2314 63.6476 51.6049 63.6674 51.2271 64.0657ZM39.4843 21.3652V11.758L50.0835 22.3706H40.4884C39.9316 22.3706 39.4843 21.9227 39.4843 21.3652Z" fill="black"/>
<path d="M40.4883 31.3711C33.8758 31.3711 28.5068 36.7571 28.5068 43.3677C28.5068 49.9783 33.8861 55.3643 40.4883 55.3643C47.0905 55.3643 52.4697 49.9783 52.4697 43.3677C52.4697 36.7571 47.0905 31.3711 40.4883 31.3711ZM40.4883 53.3833C34.9798 53.3833 30.4955 48.8933 30.4955 43.3779C30.4955 37.8625 34.9799 33.3724 40.4883 33.3724C45.9967 33.3724 50.4811 37.8625 50.4811 43.3779C50.4811 48.8933 45.9967 53.3833 40.4883 53.3833Z" fill="black"/>
<path d="M63.4571 62.1241L56.0397 54.6972C55.6519 54.309 55.0255 54.309 54.6377 54.6972L53.1164 53.174C55.2244 50.4661 56.4872 47.0712 56.4872 43.3776C56.4872 34.5566 49.3179 27.3789 40.5087 27.3789C31.6995 27.3789 24.5303 34.5572 24.5303 43.3776C24.5303 52.1979 31.6995 59.3762 40.5087 59.3762C43.8397 59.3762 46.9322 58.3508 49.4872 56.5985L51.1179 58.2313C50.9289 58.4205 50.8295 58.6793 50.8295 58.9382C50.8295 59.197 50.9389 59.4559 51.1179 59.645L58.5353 67.0719C59.2115 67.7489 60.1064 68.0973 61.0012 68.0973C61.8961 68.0973 62.791 67.7588 63.4671 67.0719C64.1234 66.4148 64.4913 65.5287 64.4913 64.6028C64.4913 63.677 64.1234 62.7909 63.4671 62.1338L63.4571 62.1241ZM26.4984 43.3773C26.4984 35.6516 32.7726 29.3698 40.4882 29.3698C48.2039 29.3698 54.4781 35.6519 54.4781 43.3773C54.4781 51.1027 48.2039 57.3848 40.4882 57.3848C32.7726 57.3848 26.4984 51.1027 26.4984 43.3773ZM51.0481 55.3637C51.2966 55.1447 51.5552 54.9257 51.7938 54.6867L53.2157 56.1104L52.4998 56.8272L51.0381 55.3637H51.0481ZM62.0451 65.668C61.4584 66.2554 60.5038 66.2554 59.9172 65.668L53.2055 58.9478L55.3233 56.8172L62.0351 63.5374C62.3234 63.8261 62.4726 64.2045 62.4726 64.6027C62.4726 65.0009 62.3135 65.3793 62.0351 65.668H62.0451Z" fill="black"/>
<path d="M45.6785 38.5585L38.3902 45.856L35.2084 42.6702C34.8206 42.2819 34.1942 42.2819 33.8064 42.6702C33.4187 43.0584 33.4187 43.6857 33.8064 44.0739L37.6942 47.9666C37.8931 48.1657 38.1417 48.2553 38.4002 48.2553C38.6588 48.2553 38.9073 48.1558 39.1062 47.9666L47.1002 39.9625C47.488 39.5742 47.488 38.947 47.1002 38.5588C46.7124 38.1705 46.086 38.1705 45.6982 38.5588L45.6785 38.5585Z" fill="black"/>
<path d="M14.5173 26.3619H20.5131C22.1637 26.3619 23.5059 25.0179 23.5059 23.3652V17.3619C23.5059 15.7092 22.1636 14.3652 20.5131 14.3652H14.5173C12.8667 14.3652 11.5244 15.7093 11.5244 17.3619V23.3652C11.5244 25.0179 12.8668 26.3619 14.5173 26.3619ZM13.5131 17.3619C13.5131 16.8044 13.9605 16.3564 14.5173 16.3564H20.5131C21.0699 16.3564 21.5173 16.8044 21.5173 17.3619V23.3652C21.5173 23.9228 21.0699 24.3708 20.5131 24.3708H14.5173C13.9605 24.3708 13.5131 23.9227 13.5131 23.3652V17.3619Z" fill="black"/>
<path d="M26.7772 31.3706C26.7772 30.823 26.3298 30.375 25.7829 30.375H12.509C11.9621 30.375 11.5146 30.823 11.5146 31.3706C11.5146 31.9181 11.9621 32.3662 12.509 32.3662H25.7829C26.3298 32.3662 26.7772 31.9181 26.7772 31.3706Z" fill="black"/>
<path d="M22.4821 36.3789H12.509C11.9621 36.3789 11.5146 36.8269 11.5146 37.3745C11.5146 37.9221 11.9621 38.3701 12.509 38.3701H22.4821C23.0289 38.3701 23.4764 37.9221 23.4764 37.3745C23.4764 36.8269 23.0289 36.3789 22.4821 36.3789Z" fill="black"/>
<path d="M12.5187 44.372H21.5074C22.0542 44.372 22.5017 43.924 22.5017 43.3764C22.5017 42.8289 22.0542 42.3809 21.5074 42.3809H12.5187C11.9719 42.3809 11.5244 42.8289 11.5244 43.3764C11.5244 43.924 11.9719 44.372 12.5187 44.372Z" fill="black"/>
<path d="M12.5187 50.3759H22.4918C23.0387 50.3759 23.4861 49.9279 23.4861 49.3803C23.4861 48.8328 23.0387 48.3848 22.4918 48.3848H12.5187C11.9719 48.3848 11.5244 48.8328 11.5244 49.3803C11.5244 49.9279 11.9719 50.3759 12.5187 50.3759Z" fill="black"/>
<path d="M12.5187 56.3798H25.7926C26.3395 56.3798 26.787 55.9318 26.787 55.3842C26.787 54.8367 26.3395 54.3887 25.7926 54.3887H12.5187C11.9719 54.3887 11.5244 54.8367 11.5244 55.3842C11.5244 55.9318 11.9719 56.3798 12.5187 56.3798Z" fill="black"/>
</g>
<defs>
<clipPath id="clip0_837_574">
<rect width="70" height="72" fill="white"/>
</clipPath>
</defs>
</svg>
