<svg width="64" height="71" viewBox="0 0 64 71" fill="none" xmlns="http://www.w3.org/2000/svg">
<g clip-path="url(#clip0_837_516)">
<path d="M32 40.5716C36.963 40.5716 41 36.4759 41 31.443C41 26.4101 36.963 22.3145 32 22.3145C27.037 22.3145 23 26.4101 23 31.443C23 36.4759 27.037 40.5716 32 40.5716ZM32 24.343C35.859 24.343 39 27.5279 39 31.443C39 35.3582 35.859 38.543 32 38.543C28.141 38.543 25 35.3582 25 31.443C25 27.5279 28.141 24.343 32 24.343Z" fill="black"/>
<path d="M32 36.514C34.757 36.514 37 34.2389 37 31.4425C37 28.6461 34.757 26.3711 32 26.3711C29.243 26.3711 27 28.6461 27 31.4425C27 34.2389 29.243 36.514 32 36.514ZM32 28.3997C33.654 28.3997 35 29.7649 35 31.4425C35 33.1202 33.654 34.4854 32 34.4854C30.346 34.4854 29 33.1202 29 31.4425C29 29.7649 30.346 28.3997 32 28.3997Z" fill="black"/>
<path d="M55 31.4415H48V27.6166L44.066 26.5638C44.023 26.4542 43.978 26.3447 43.931 26.2351L45.979 22.6689L40.647 17.2607L37.131 19.338C37.024 19.2913 36.915 19.2457 36.807 19.2011L35.771 15.2129H28.23L27.193 19.2021C27.085 19.2457 26.976 19.2913 26.869 19.339L23.353 17.2617L18.021 22.6699L20.069 26.2361C20.022 26.3457 19.977 26.4552 19.934 26.5648L16 27.6166V31.4415H9V41.1127L27 53.2841V63.8986H37V53.2841L55 41.1127V31.4415ZM18 29.1806L21.455 28.2556L21.631 27.7484C21.763 27.3691 21.918 26.9887 22.094 26.6185L22.323 26.1337L20.524 23.0006L23.676 19.8025L26.766 21.6282L27.245 21.395C27.608 21.2175 27.983 21.0592 28.358 20.9264L28.859 20.7478L29.771 17.2415H34.23L35.141 20.7458L35.642 20.9243C36.017 21.0582 36.392 21.2164 36.755 21.3929L37.234 21.6262L40.324 19.8005L43.476 22.9985L41.677 26.1317L41.906 26.6165C42.082 26.9877 42.237 27.3681 42.369 27.7464L42.545 28.2536L46 29.1806V33.7033L42.545 34.6283L42.369 35.1355C42.237 35.5148 42.082 35.8952 41.906 36.2654L41.677 36.7502L43.476 39.8834L40.324 43.0814L37.234 41.2557L36.755 41.489C36.392 41.6665 36.017 41.8247 35.642 41.9576L35.141 42.1361L34.229 45.6415H29.77L28.859 42.1371L28.358 41.9586C27.983 41.8247 27.608 41.6665 27.245 41.49L26.766 41.2567L23.676 43.0824L20.524 39.8844L22.323 36.7512L22.094 36.2664C21.918 35.8952 21.763 35.5148 21.631 35.1365L21.455 34.6294L18 33.7023V29.1806ZM53 40.0274L35 52.1988V61.87H29V52.1988L11 40.0274V33.47H16V35.2663L19.934 36.3192C19.977 36.4287 20.022 36.5382 20.069 36.6478L18.021 40.214L23.353 45.6222L26.869 43.5449C26.976 43.5916 27.085 43.6372 27.193 43.6819L28.229 47.67H35.77L36.807 43.6808C36.915 43.6372 37.024 43.5916 37.131 43.5439L40.647 45.6212L45.979 40.213L43.931 36.6468C43.978 36.5372 44.023 36.4277 44.066 36.3181L48 35.2663V33.47H53V40.0274Z" fill="black"/>
<path d="M10.64 30.3012L11.611 28.5272C9.384 27.2745 8 24.893 8 22.3137C8 18.7099 10.659 15.6802 14.186 15.2664L14.958 15.1761L15.062 14.3951C15.46 11.3918 18.014 9.12796 21 9.12796C21.687 9.12796 22.372 9.25272 23.038 9.49716L23.857 9.7984L24.263 9.01639C26.176 5.33149 29.906 3.04224 34 3.04224C39.419 3.04224 44.093 7.14503 44.871 12.5867L45.028 13.6912L46.097 13.4265C46.744 13.2662 47.384 13.1851 48 13.1851C52.411 13.1851 56 16.8254 56 21.2994C56 24.4031 54.297 27.1893 51.555 28.5708L52.446 30.3874C55.871 28.6601 58 25.178 58 21.2994C58 15.2593 52.768 10.3786 46.658 11.2539C45.322 5.3467 40.056 1.01367 34 1.01367C29.439 1.01367 25.261 3.41652 22.904 7.33774C22.277 7.17952 21.64 7.09939 21 7.09939C17.271 7.09939 14.048 9.74566 13.216 13.3697C9.053 14.2156 6 17.936 6 22.3137C6 25.6304 7.778 28.6905 10.64 30.3012Z" fill="black"/>
<path d="M1.29297 44.9246L2.70697 46.3588L4.99997 44.0331V53.756H6.99997V44.0331L9.29297 46.3588L10.707 44.9246L5.99997 40.1504L1.29297 44.9246Z" fill="black"/>
<path d="M7 55.7852H5V57.8137H7V55.7852Z" fill="black"/>
<path d="M7 59.8418H5V61.8704H7V59.8418Z" fill="black"/>
<path d="M61.293 57.0964L59 59.4222V49.6992H57V59.4222L54.707 57.0964L53.293 58.5306L58 63.3048L62.707 58.5306L61.293 57.0964Z" fill="black"/>
<path d="M59 45.6426H57V47.6711H59V45.6426Z" fill="black"/>
<path d="M59 41.5859H57V43.6145H59V41.5859Z" fill="black"/>
<path d="M10 22.3136H12C12 20.636 13.346 19.2708 15 19.2708V17.2422C12.243 17.2422 10 19.5172 10 22.3136Z" fill="black"/>
<path d="M27.6357 7.74357L29.0497 9.17777C31.7797 6.40978 36.2197 6.40978 38.9497 9.17777L40.3637 7.74357C36.8537 4.18444 31.1457 4.18444 27.6357 7.74357Z" fill="black"/>
<path d="M48 15.2129V17.2415C50.206 17.2415 52 19.0611 52 21.2986H54C54 17.9423 51.309 15.2129 48 15.2129Z" fill="black"/>
</g>
<defs>
<clipPath id="clip0_837_516">
<rect width="64" height="71" fill="white"/>
</clipPath>
</defs>
</svg>
