<svg width="72" height="71" viewBox="0 0 72 71" fill="none" xmlns="http://www.w3.org/2000/svg">
<g clip-path="url(#clip0_837_629)">
<path d="M45.5036 42.9814H13.6292C12.7921 42.9795 11.99 42.6469 11.3988 42.0567C10.8076 41.4665 10.4756 40.6668 10.4756 39.833V16.446C10.4756 15.6129 10.8078 14.814 11.3993 14.2249C11.9907 13.6358 12.7928 13.3048 13.6292 13.3048H52.9772C53.3937 13.301 53.8069 13.3795 54.1929 13.5356C54.5788 13.6918 54.9299 13.9226 55.2258 14.2147C55.5217 14.5067 55.7565 14.8543 55.9168 15.2373C56.0771 15.6203 56.1596 16.0311 56.1596 16.446V28.724C56.1596 28.8952 56.0913 29.0594 55.9698 29.1804C55.8483 29.3015 55.6834 29.3695 55.5116 29.3695C55.3397 29.3695 55.1749 29.3015 55.0534 29.1804C54.9319 29.0594 54.8636 28.8952 54.8636 28.724V16.446C54.8617 15.9559 54.6654 15.4863 54.3174 15.1398C53.9695 14.7932 53.4981 14.5976 53.006 14.5957H13.6292C13.1371 14.5976 12.6657 14.7932 12.3178 15.1398C11.9698 15.4863 11.7735 15.9559 11.7716 16.446V39.833C11.7716 40.3244 11.9671 40.7958 12.3152 41.1439C12.6634 41.492 13.1359 41.6886 13.6292 41.6905H45.5036C45.6754 41.6905 45.8403 41.7585 45.9618 41.8795C46.0833 42.0006 46.1516 42.1647 46.1516 42.3359C46.1516 42.5071 46.0833 42.6713 45.9618 42.7923C45.8403 42.9134 45.6754 42.9814 45.5036 42.9814Z" fill="black"/>
<path d="M45.5542 53.7455H2.58464C2.46236 53.7471 2.34223 53.7134 2.23875 53.6485C2.13526 53.5836 2.05285 53.4903 2.00144 53.3798C1.94141 53.2664 1.91623 53.1379 1.92903 53.0104C1.94184 52.8828 1.99206 52.7619 2.07344 52.6626L9.77024 43.031C9.87718 42.895 10.034 42.8069 10.2061 42.786C10.3783 42.7652 10.5517 42.8133 10.6882 42.9198C10.8248 43.0263 10.9132 43.1825 10.9342 43.354C10.9551 43.5255 10.9068 43.6982 10.7998 43.8342L3.93824 52.4403H45.5542C45.7261 52.4403 45.8909 52.5083 46.0124 52.6293C46.134 52.7504 46.2022 52.9145 46.2022 53.0857C46.2022 53.2569 46.134 53.4211 46.0124 53.5421C45.8909 53.6632 45.7261 53.7312 45.5542 53.7312V53.7455Z" fill="black"/>
<path d="M56.2106 56.3575C56.986 56.3575 57.6146 55.7314 57.6146 54.959C57.6146 54.1867 56.986 53.5605 56.2106 53.5605C55.4352 53.5605 54.8066 54.1867 54.8066 54.959C54.8066 55.7314 55.4352 56.3575 56.2106 56.3575Z" fill="black"/>
<path d="M61.9707 46.001C61.8849 46.0008 61.7999 45.9835 61.7208 45.9503C61.6417 45.917 61.57 45.8685 61.5099 45.8074L59.3499 43.6559C59.2416 43.5327 59.1844 43.373 59.1898 43.2093C59.1953 43.0456 59.263 42.8901 59.3792 42.7743C59.4955 42.6585 59.6516 42.591 59.816 42.5856C59.9803 42.5802 60.1406 42.6372 60.2643 42.7451L61.9707 44.4663L65.8011 40.6509C65.9226 40.5305 66.087 40.4629 66.2583 40.4629C66.4297 40.4629 66.5941 40.5305 66.7155 40.6509C66.8369 40.7731 66.9049 40.9381 66.9049 41.1099C66.9049 41.2818 66.8369 41.4467 66.7155 41.5689L62.3955 45.8361C62.2801 45.9429 62.1282 46.0019 61.9707 46.001Z" fill="black"/>
<path d="M33.3068 37.7818C31.4126 37.7833 29.5604 37.2251 27.9847 36.1778C26.409 35.1306 25.1805 33.6414 24.4546 31.8986C23.7287 30.1558 23.5381 28.2378 23.9068 26.387C24.2754 24.5363 25.1869 22.836 26.5258 21.5013C27.8648 20.1667 29.571 19.2575 31.4288 18.8889C33.2866 18.5203 35.2123 18.7087 36.9625 19.4305C38.7128 20.1522 40.2087 21.3747 41.2613 22.9435C42.3138 24.5122 42.8756 26.3566 42.8756 28.2435C42.8737 30.7714 41.8652 33.1953 40.0713 34.9835C38.2775 36.7717 35.8447 37.778 33.3068 37.7818ZM33.3068 20.0032C31.6686 20.0017 30.0667 20.4844 28.704 21.3901C27.3413 22.2958 26.2789 23.5838 25.6513 25.0911C25.0237 26.5985 24.8591 28.2574 25.1784 29.8579C25.4976 31.4584 26.2864 32.9286 27.4448 34.0825C28.6032 35.2363 30.0792 36.022 31.6861 36.34C33.2929 36.658 34.9583 36.4941 36.4716 35.8689C37.9848 35.2438 39.2779 34.1856 40.1872 32.8282C41.0965 31.4708 41.5811 29.8753 41.5796 28.2435C41.5758 26.0592 40.703 23.9654 39.1524 22.4209C37.6018 20.8763 35.4997 20.007 33.3068 20.0032Z" fill="black"/>
<path d="M31.3847 32.003C31.2127 32.002 31.0477 31.9353 30.9239 31.8165L27.8063 28.6896C27.7446 28.6307 27.6956 28.56 27.6621 28.4818C27.6286 28.4035 27.6113 28.3193 27.6113 28.2342C27.6113 28.1492 27.6286 28.065 27.6621 27.9867C27.6956 27.9084 27.7446 27.8377 27.8063 27.7788C27.9277 27.6584 28.0921 27.5908 28.2635 27.5908C28.4348 27.5908 28.5992 27.6584 28.7207 27.7788L31.3847 30.4324L37.1447 24.695C37.2684 24.5871 37.4287 24.5301 37.593 24.5355C37.7573 24.5409 37.9135 24.6084 38.0297 24.7242C38.146 24.84 38.2137 24.9955 38.2192 25.1592C38.2246 25.3229 38.1674 25.4826 38.0591 25.6058L31.8167 31.8309C31.698 31.9378 31.5447 31.9989 31.3847 32.003Z" fill="black"/>
<path d="M64.9219 36.6695V33.9658C64.9219 33.0699 64.5646 32.2107 63.9287 31.5772C63.2927 30.9438 62.4301 30.5879 61.5307 30.5879H50.8963C50 30.5936 49.1422 30.9517 48.5098 31.5844C47.8773 32.217 47.5214 33.073 47.5195 33.9658V55.0363C47.5214 55.9328 47.8803 56.792 48.5174 57.4252C49.1546 58.0585 50.0179 58.4142 50.9179 58.4142H61.5307C62.4301 58.4142 63.2927 58.0583 63.9287 57.4248C64.5646 56.7913 64.9219 55.9321 64.9219 55.0363V49.7579C66.3899 49.3962 67.6941 48.5552 68.6262 47.3691C69.5584 46.1829 70.0648 44.72 70.0648 43.2137C70.0648 41.7074 69.5584 40.2445 68.6262 39.0583C67.6941 37.8722 66.3899 37.0312 64.9219 36.6695ZM63.6259 55.0363C63.6259 55.5898 63.4052 56.1206 63.0123 56.512C62.6193 56.9034 62.0864 57.1232 61.5307 57.1232H50.8963C50.6206 57.1242 50.3474 57.0709 50.0923 56.9664C49.8373 56.862 49.6055 56.7084 49.4101 56.5145C49.2148 56.3206 49.0598 56.0903 48.9541 55.8366C48.8484 55.5829 48.7939 55.3109 48.7939 55.0363V33.9658C48.7939 33.6911 48.8484 33.4191 48.9541 33.1655C49.0598 32.9118 49.2148 32.6814 49.4101 32.4875C49.6055 32.2936 49.8373 32.1401 50.0923 32.0356C50.3474 31.9311 50.6206 31.8779 50.8963 31.8788H61.5307C62.0864 31.8788 62.6193 32.0987 63.0123 32.4901C63.4052 32.8814 63.6259 33.4123 63.6259 33.9658V36.483C63.5107 36.483 63.4027 36.483 63.2875 36.483C62.8988 36.4862 62.511 36.5222 62.1283 36.5906V35.0128C62.1264 34.536 61.9354 34.0792 61.5969 33.7421C61.2584 33.4049 60.7998 33.2146 60.3211 33.2127H52.1059C51.626 33.2127 51.1656 33.4022 50.8255 33.7395C50.4854 34.0769 50.2934 34.5348 50.2915 35.0128V51.0345C50.2934 51.5125 50.4854 51.9704 50.8255 52.3078C51.1656 52.6451 51.626 52.8346 52.1059 52.8346H60.3211C60.7998 52.8327 61.2584 52.6424 61.5969 52.3052C61.9354 51.9681 62.1264 51.5113 62.1283 51.0345V49.8655C62.5112 49.9315 62.899 49.9651 63.2875 49.9659H63.6259V55.0363ZM60.8323 35.0128V36.9277C59.5571 37.4177 58.4607 38.2809 57.6875 39.4036C56.9142 40.5262 56.5003 41.8558 56.5003 43.2173C56.5003 44.5788 56.9142 45.9083 57.6875 47.031C58.4607 48.1537 59.5571 49.0168 60.8323 49.5069V51.0345C60.8323 51.1695 60.7785 51.299 60.6826 51.3945C60.5867 51.49 60.4567 51.5436 60.3211 51.5436H52.1059C52.0382 51.5446 51.9709 51.5321 51.9081 51.507C51.8452 51.4818 51.788 51.4444 51.7398 51.3971C51.6916 51.3497 51.6533 51.2932 51.6271 51.231C51.601 51.1687 51.5875 51.1019 51.5875 51.0345V35.0128C51.5875 34.9454 51.601 34.8786 51.6271 34.8163C51.6533 34.7541 51.6916 34.6976 51.7398 34.6502C51.788 34.6028 51.8452 34.5655 51.9081 34.5403C51.9709 34.5152 52.0382 34.5027 52.1059 34.5036H60.3211C60.4567 34.5036 60.5867 34.5573 60.6826 34.6528C60.7785 34.7483 60.8323 34.8778 60.8323 35.0128ZM63.2875 48.675C62.2018 48.6764 61.1401 48.3569 60.2367 47.757C59.3334 47.157 58.6291 46.3036 58.2129 45.3047C57.7968 44.3059 57.6875 43.2065 57.899 42.1457C58.1105 41.085 58.6331 40.1106 59.4009 39.3459C60.1686 38.5812 61.1468 38.0606 62.2118 37.8499C63.2767 37.6393 64.3804 37.7481 65.3832 38.1626C66.386 38.5771 67.2428 39.2787 67.8451 40.1785C68.4474 41.0783 68.7682 42.1358 68.7667 43.2173C68.7648 44.6642 68.1869 46.0512 67.1598 47.0743C66.1327 48.0975 64.7401 48.6731 63.2875 48.675Z" fill="black"/>
</g>
<defs>
<clipPath id="clip0_837_629">
<rect width="72" height="71" fill="white"/>
</clipPath>
</defs>
</svg>
