<svg width="110" height="137" viewBox="0 0 110 137" fill="none" xmlns="http://www.w3.org/2000/svg">
<g clip-path="url(#clip0_837_346)">
<path d="M50.417 68.5003C50.417 65.9781 52.469 63.9336 55.0003 63.9336C57.5317 63.9336 59.5837 65.9781 59.5837 68.5003V73.0669C59.5837 75.5891 57.5317 77.6336 55.0003 77.6336C52.469 77.6336 50.417 75.5891 50.417 73.0669V68.5003Z" fill="#005CB9"/>
<path fill-rule="evenodd" clip-rule="evenodd" d="M77.9095 46.2397C77.9141 46.0493 77.9163 45.8579 77.9163 45.6661V31.9661C77.9163 19.3557 67.6561 9.13281 54.9997 9.13281C42.3432 9.13281 32.083 19.3557 32.083 31.9661V45.6661C32.083 45.8579 32.0854 46.0493 32.0901 46.2397C24.1792 48.265 18.333 55.4187 18.333 63.9328V82.1995C18.333 92.2877 26.5411 100.466 36.6663 100.466H73.333C83.4581 100.466 91.6663 92.2877 91.6663 82.1995V63.9328C91.6663 55.4187 85.8203 48.265 77.9095 46.2397ZM68.7497 45.6661V31.9661C68.7497 24.3999 62.5938 18.2661 54.9997 18.2661C47.4056 18.2661 41.2497 24.3999 41.2497 31.9661V45.6661H68.7497ZM82.4997 63.9328C82.4997 58.8885 78.3958 54.7995 73.333 54.7995H36.6663C31.6037 54.7995 27.4997 58.8885 27.4997 63.9328V82.1995C27.4997 87.2438 31.6037 91.3328 36.6663 91.3328H73.333C78.3958 91.3328 82.4997 87.2438 82.4997 82.1995V63.9328Z" fill="#005CB9"/>
</g>
<defs>
<clipPath id="clip0_837_346">
<rect width="110" height="137" fill="white"/>
</clipPath>
</defs>
</svg>
