<svg width="67" height="144" viewBox="0 0 67 144" fill="none" xmlns="http://www.w3.org/2000/svg">
<path d="M0.527566 4.25946C1.40682 5.44096 3.07739 5.68598 4.25888 4.80672C5.44038 3.92747 5.6854 2.2569 4.80614 1.0754C3.92689 -0.106092 2.25632 -0.351108 1.07483 0.528145C-0.10667 1.4074 -0.351688 3.07797 0.527566 4.25946ZM63.8214 143.512L66.7081 138.512L60.9346 138.512L63.8214 143.512ZM63.8211 2.66743L64.3211 2.66743L64.3211 2.16743L63.8211 2.16743L63.8211 2.66743ZM63.821 54.5124L63.321 54.5124V54.5124L63.821 54.5124ZM63.8212 118.512L63.3212 118.512L63.3212 118.512L63.8212 118.512ZM63.8213 140.387L64.3213 140.387L64.3213 138.304L63.8213 138.304L63.3213 138.304L63.3213 140.387L63.8213 140.387ZM63.8213 136.221L64.3213 136.221L64.3213 134.137L63.8213 134.137L63.3213 134.137L63.3213 136.221L63.8213 136.221ZM63.8213 132.054L64.3213 132.054L64.3212 129.971L63.8212 129.971L63.3212 129.971L63.3213 132.054L63.8213 132.054ZM63.8212 127.887L64.3212 127.887L64.3212 125.804L63.8212 125.804L63.3212 125.804L63.3212 127.887L63.8212 127.887ZM63.8212 123.721L64.3212 123.721L64.3212 121.637L63.8212 121.637L63.3212 121.637L63.3212 123.721L63.8212 123.721ZM63.8212 119.554L64.3212 119.554L64.3212 118.512L63.8212 118.512L63.3212 118.512L63.3212 119.554L63.8212 119.554ZM63.8212 118.512L64.3212 118.512L64.3212 117.512L63.8212 117.512L63.3212 117.512L63.3212 118.512L63.8212 118.512ZM63.8211 115.512L64.3211 115.512L64.3211 113.512L63.8211 113.512L63.3211 113.512L63.3211 115.512L63.8211 115.512ZM63.8211 111.512L64.3211 111.512L64.3211 109.512L63.8211 109.512L63.3211 109.512L63.3211 111.512L63.8211 111.512ZM63.8211 107.512L64.3211 107.512L64.3211 105.512L63.8211 105.512L63.3211 105.512L63.3211 107.512L63.8211 107.512ZM63.8211 103.512L64.3211 103.512L64.3211 101.512L63.8211 101.512L63.3211 101.512L63.3211 103.512L63.8211 103.512ZM63.8211 99.5125L64.3211 99.5125L64.3211 97.5125L63.8211 97.5125L63.3211 97.5125L63.3211 99.5125L63.8211 99.5125ZM63.8211 95.5125L64.3211 95.5125L64.3211 93.5125L63.8211 93.5125L63.3211 93.5125L63.3211 95.5125L63.8211 95.5125ZM63.8211 91.5125L64.3211 91.5125L64.3211 89.5125L63.8211 89.5125L63.3211 89.5125L63.3211 91.5125L63.8211 91.5125ZM63.8211 87.5125L64.3211 87.5125L64.3211 85.5125L63.8211 85.5125L63.3211 85.5125L63.3211 87.5125L63.8211 87.5125ZM63.8211 83.5125L64.3211 83.5125L64.3211 81.5125L63.8211 81.5125L63.3211 81.5125L63.3211 83.5125L63.8211 83.5125ZM63.8211 79.5125L64.3211 79.5125L64.3211 77.5125L63.8211 77.5125L63.3211 77.5125L63.3211 79.5125L63.8211 79.5125ZM63.8211 75.5125L64.3211 75.5125L64.3211 73.5125L63.8211 73.5125L63.3211 73.5125L63.3211 75.5125L63.8211 75.5125ZM63.8211 71.5125L64.3211 71.5125L64.3211 69.5125L63.8211 69.5125L63.3211 69.5125L63.3211 71.5125L63.8211 71.5125ZM63.8211 67.5125L64.3211 67.5125L64.3211 65.5125L63.8211 65.5125L63.3211 65.5125L63.3211 67.5125L63.8211 67.5125ZM63.8211 63.5125L64.3211 63.5125L64.3211 61.5125L63.8211 61.5125L63.3211 61.5125L63.3211 63.5125L63.8211 63.5125ZM63.8211 59.5125L64.3211 59.5125L64.321 57.5125L63.821 57.5125L63.321 57.5125L63.3211 59.5125L63.8211 59.5125ZM63.821 55.5125L64.321 55.5125L64.321 54.5125L63.821 54.5124L63.321 54.5124L63.321 55.5125L63.821 55.5125ZM63.821 54.5124L64.321 54.5125L64.321 53.5154L63.821 53.5154L63.321 53.5154L63.321 54.5124L63.821 54.5124ZM63.821 51.5214L64.321 51.5214L64.321 49.5274L63.821 49.5274L63.321 49.5274L63.321 51.5214L63.821 51.5214ZM63.821 47.5333L64.321 47.5333L64.321 45.5393L63.821 45.5393L63.321 45.5393L63.321 47.5333L63.821 47.5333ZM63.821 43.5452L64.321 43.5452L64.321 41.5512L63.821 41.5512L63.321 41.5512L63.321 43.5452L63.821 43.5452ZM63.821 39.5571L64.321 39.5572L64.321 37.5631L63.821 37.5631L63.321 37.5631L63.321 39.5572L63.821 39.5571ZM63.821 35.5691L64.321 35.5691L64.3211 33.575L63.8211 33.575L63.3211 33.575L63.321 35.5691L63.821 35.5691ZM63.821 31.581L64.321 31.581L64.3211 29.587L63.821 29.587L63.321 29.587L63.321 31.581L63.821 31.581ZM63.821 27.5929L64.3211 27.5929L64.321 25.5989L63.821 25.5989L63.3211 25.5989L63.3211 27.5929L63.821 27.5929ZM63.8211 23.6048L64.3211 23.6048L64.3211 21.6108L63.8211 21.6108L63.3211 21.6108L63.3211 23.6048L63.8211 23.6048ZM63.8211 19.6168L64.3211 19.6168L64.3211 17.6227L63.8211 17.6227L63.3211 17.6227L63.3211 19.6168L63.8211 19.6168ZM63.8211 15.6287L64.3211 15.6287L64.3211 13.6346L63.8211 13.6346L63.3211 13.6346L63.3211 15.6287L63.8211 15.6287ZM63.8211 11.6406L64.3211 11.6406L64.3211 9.64657L63.8211 9.64657L63.3211 9.64657L63.3211 11.6406L63.8211 11.6406ZM63.8211 7.65254L64.3211 7.65254L64.3211 5.65849L63.8211 5.6585L63.3211 5.6585L63.3211 7.65254L63.8211 7.65254ZM63.8211 3.66446L64.3211 3.66446L64.3211 2.66743L63.8211 2.66743L63.3211 2.66743L63.3211 3.66446L63.8211 3.66446ZM63.8211 2.66743L63.8211 2.16743L62.8018 2.16742L62.8018 2.66743L62.8018 3.16743L63.8211 3.16743L63.8211 2.66743ZM60.7633 2.66743L60.7633 2.16743L58.7249 2.16743L58.7249 2.66743L58.7249 3.16743L60.7633 3.16743L60.7633 2.66743ZM56.6864 2.66742L56.6864 2.16743L54.6479 2.16743L54.6479 2.66743L54.6479 3.16743L56.6864 3.16743L56.6864 2.66742ZM52.6095 2.66743L52.6095 2.16743L50.571 2.16743L50.571 2.66743L50.571 3.16743L52.6095 3.16743L52.6095 2.66743ZM48.5325 2.66743L48.5325 2.16743L46.494 2.16743L46.494 2.66743L46.494 3.16743L48.5325 3.16743L48.5325 2.66743ZM44.4556 2.66743L44.4556 2.16743L42.4171 2.16743L42.4171 2.66743L42.4171 3.16743L44.4556 3.16743L44.4556 2.66743ZM40.3786 2.66743L40.3786 2.16743L38.3401 2.16743L38.3401 2.66743L38.3401 3.16743L40.3786 3.16743L40.3786 2.66743ZM36.3017 2.66743L36.3017 2.16743L34.2632 2.16743L34.2632 2.66743L34.2632 3.16743L36.3017 3.16743L36.3017 2.66743ZM32.2247 2.66743L32.2247 2.16743L30.1863 2.16743L30.1862 2.66743L30.1862 3.16743L32.2247 3.16743L32.2247 2.66743ZM28.1478 2.66743L28.1478 2.16743L26.1093 2.16743L26.1093 2.66743L26.1093 3.16743L28.1478 3.16743L28.1478 2.66743ZM24.0708 2.66743L24.0708 2.16743L22.0323 2.16743L22.0323 2.66743L22.0323 3.16743L24.0708 3.16743L24.0708 2.66743ZM19.9939 2.66743L19.9939 2.16743L17.9554 2.16743L17.9554 2.66743L17.9554 3.16743L19.9939 3.16743L19.9939 2.66743ZM15.9169 2.66743L15.9169 2.16743L13.8784 2.16743L13.8784 2.66743L13.8784 3.16743L15.9169 3.16743L15.9169 2.66743ZM11.84 2.66743L11.84 2.16743L9.8015 2.16743L9.8015 2.66743L9.8015 3.16743L11.84 3.16743L11.84 2.66743ZM7.76302 2.66743L7.76302 2.16743L5.72455 2.16743L5.72455 2.66743L5.72455 3.16743L7.76302 3.16743L7.76302 2.66743ZM3.68607 2.66743L3.68607 2.16743L2.66685 2.16743L2.66686 2.66743L2.66686 3.16743L3.68607 3.16743L3.68607 2.66743Z" fill="#8B8B8B"/>
</svg>
