<svg width="102" height="63" viewBox="0 0 102 63" fill="none" xmlns="http://www.w3.org/2000/svg">
<path d="M0.527562 61.7286C1.40682 62.9101 3.07738 63.1551 4.25888 62.2758C5.44038 61.3966 5.68539 59.726 4.80614 58.5445C3.92689 57.363 2.25632 57.118 1.07482 57.9973C-0.106674 58.8765 -0.351691 60.5471 0.527562 61.7286ZM101.167 2.88656L96.1669 -0.00018278L96.1669 5.77332L101.167 2.88656ZM2.66673 43.6366L2.66674 43.1366L2.16673 43.1366L2.16674 43.6366L2.66673 43.6366ZM49.1669 43.6366L49.1669 44.1366L49.6669 44.1366L49.6669 43.6366L49.1669 43.6366ZM49.1668 2.88659L49.1668 2.38658L48.6668 2.38659L48.6668 2.88659L49.1668 2.88659ZM2.66685 60.1366L3.16685 60.1365L3.16684 59.1053L2.66684 59.1053L2.16684 59.1053L2.16685 60.1366L2.66685 60.1366ZM2.66683 57.0428L3.16683 57.0428L3.16681 54.9803L2.66681 54.9803L2.16681 54.9803L2.16683 57.0428L2.66683 57.0428ZM2.6668 52.9178L3.1668 52.9178L3.16679 50.8553L2.66679 50.8553L2.16679 50.8553L2.1668 52.9178L2.6668 52.9178ZM2.66677 48.7928L3.16677 48.7928L3.16676 46.7303L2.66676 46.7303L2.16676 46.7303L2.16677 48.7928L2.66677 48.7928ZM2.66674 44.6678L3.16674 44.6678L3.16673 43.6366L2.66673 43.6366L2.16674 43.6366L2.16674 44.6678L2.66674 44.6678ZM2.66673 43.6366L2.66673 44.1366L3.63549 44.1366L3.63549 43.6366L3.63549 43.1366L2.66674 43.1366L2.66673 43.6366ZM5.57299 43.6366L5.57299 44.1366L7.5105 44.1366L7.5105 43.6366L7.5105 43.1366L5.57299 43.1366L5.57299 43.6366ZM9.448 43.6366L9.448 44.1366L11.3855 44.1366L11.3855 43.6366L11.3855 43.1366L9.448 43.1366L9.448 43.6366ZM13.323 43.6366L13.323 44.1366L15.2605 44.1366L15.2605 43.6366L15.2605 43.1366L13.323 43.1366L13.323 43.6366ZM17.198 43.6366L17.198 44.1366L19.1355 44.1366L19.1355 43.6366L19.1355 43.1366L17.198 43.1366L17.198 43.6366ZM21.073 43.6366L21.073 44.1366L23.0105 44.1366L23.0105 43.6366L23.0105 43.1366L21.073 43.1366L21.073 43.6366ZM24.9481 43.6366L24.9481 44.1366L26.8856 44.1366L26.8856 43.6366L26.8856 43.1366L24.9481 43.1366L24.9481 43.6366ZM28.8231 43.6366L28.8231 44.1366L30.7606 44.1366L30.7606 43.6366L30.7606 43.1366L28.8231 43.1366L28.8231 43.6366ZM32.6981 43.6366L32.6981 44.1366L34.6356 44.1366L34.6356 43.6366L34.6356 43.1366L32.6981 43.1366L32.6981 43.6366ZM36.5731 43.6366L36.5731 44.1366L38.5106 44.1366L38.5106 43.6366L38.5106 43.1366L36.5731 43.1366L36.5731 43.6366ZM40.4481 43.6366L40.4481 44.1366L42.3856 44.1366L42.3856 43.6366L42.3856 43.1366L40.4481 43.1366L40.4481 43.6366ZM44.3231 43.6366L44.3231 44.1366L46.2606 44.1366L46.2606 43.6366L46.2606 43.1366L44.3231 43.1366L44.3231 43.6366ZM48.1981 43.6366L48.1981 44.1366L49.1669 44.1366L49.1669 43.6366L49.1669 43.1366L48.1981 43.1366L48.1981 43.6366ZM49.1669 43.6366L49.6669 43.6366L49.6669 42.6178L49.1669 42.6178L48.6669 42.6178L48.6669 43.6366L49.1669 43.6366ZM49.1669 40.5803L49.6669 40.5803L49.6669 38.5428L49.1669 38.5428L48.6669 38.5428L48.6669 40.5803L49.1669 40.5803ZM49.1669 36.5053L49.6669 36.5053L49.6669 34.4678L49.1669 34.4678L48.6669 34.4678L48.6669 36.5053L49.1669 36.5053ZM49.1669 32.4303L49.6669 32.4303L49.6668 30.3928L49.1668 30.3928L48.6669 30.3928L48.6669 32.4303L49.1669 32.4303ZM49.1668 28.3553L49.6668 28.3553L49.6668 26.3178L49.1668 26.3178L48.6668 26.3178L48.6668 28.3553L49.1668 28.3553ZM49.1668 24.2803L49.6668 24.2803L49.6668 22.2428L49.1668 22.2428L48.6668 22.2428L48.6668 24.2803L49.1668 24.2803ZM49.1668 20.2053L49.6668 20.2053L49.6668 18.1678L49.1668 18.1678L48.6668 18.1678L48.6668 20.2053L49.1668 20.2053ZM49.1668 16.1303L49.6668 16.1303L49.6668 14.0928L49.1668 14.0928L48.6668 14.0928L48.6668 16.1303L49.1668 16.1303ZM49.1668 12.0553L49.6668 12.0553L49.6668 10.0178L49.1668 10.0178L48.6668 10.0178L48.6668 12.0553L49.1668 12.0553ZM49.1668 7.98034L49.6668 7.98034L49.6668 5.94284L49.1668 5.94284L48.6668 5.94284L48.6668 7.98034L49.1668 7.98034ZM49.1668 3.90534L49.6668 3.90534L49.6668 2.88659L49.1668 2.88659L48.6668 2.88659L48.6668 3.90534L49.1668 3.90534ZM49.1668 2.88659L49.1668 3.38659L50.1668 3.38658L50.1668 2.88659L50.1668 2.38659L49.1668 2.38658L49.1668 2.88659ZM52.1668 2.88659L52.1668 3.38658L54.1668 3.38658L54.1668 2.88659L54.1668 2.38658L52.1668 2.38659L52.1668 2.88659ZM56.1668 2.88659L56.1668 3.38658L58.1668 3.38658L58.1668 2.88658L58.1668 2.38658L56.1668 2.38658L56.1668 2.88659ZM60.1668 2.88658L60.1668 3.38658L62.1668 3.38658L62.1668 2.88658L62.1668 2.38658L60.1668 2.38658L60.1668 2.88658ZM64.1668 2.88658L64.1668 3.38658L66.1668 3.38658L66.1668 2.88658L66.1668 2.38658L64.1668 2.38658L64.1668 2.88658ZM68.1668 2.88658L68.1668 3.38658L70.1668 3.38658L70.1668 2.88658L70.1668 2.38658L68.1668 2.38658L68.1668 2.88658ZM72.1668 2.88657L72.1668 3.38658L74.1668 3.38658L74.1668 2.88657L74.1668 2.38658L72.1668 2.38658L72.1668 2.88657ZM76.1668 2.88657L76.1668 3.38658L78.1668 3.38657L78.1668 2.88657L78.1668 2.38658L76.1668 2.38657L76.1668 2.88657ZM80.1669 2.88657L80.1669 3.38657L82.1669 3.38657L82.1669 2.88657L82.1669 2.38657L80.1669 2.38657L80.1669 2.88657ZM84.1669 2.88657L84.1669 3.38657L86.1669 3.38657L86.1669 2.88657L86.1669 2.38657L84.1669 2.38657L84.1669 2.88657ZM88.1669 2.88657L88.1669 3.38657L90.1669 3.38657L90.1669 2.88657L90.1669 2.38657L88.1669 2.38657L88.1669 2.88657ZM92.1669 2.88657L92.1669 3.38657L94.1669 3.38657L94.1669 2.88657L94.1669 2.38657L92.1669 2.38657L92.1669 2.88657ZM96.1669 2.88657L96.1669 3.38657L98.1669 3.38657L98.1669 2.88657L98.1669 2.38656L96.1669 2.38657L96.1669 2.88657Z" fill="#8B8B8B"/>
</svg>
