<svg width="52" height="74" viewBox="0 0 52 74" fill="none" xmlns="http://www.w3.org/2000/svg">
<path d="M38.0851 57.9762H13.1992C10.9267 57.9762 9.07837 56.135 9.07837 53.8707V19.8875C9.07837 17.6244 10.9267 15.7832 13.1992 15.7832H32.3192C32.6135 15.7832 32.8959 15.8931 33.1145 16.0905L41.8195 23.9989C42.0653 24.2223 42.206 24.5402 42.206 24.8734V53.8707C42.206 56.1338 40.3565 57.9762 38.0851 57.9762ZM13.1992 18.1456C12.2302 18.1456 11.4419 18.9267 11.4419 19.8863V53.8695C11.4419 54.8303 12.2302 55.6115 13.1992 55.6115H38.0851C39.0542 55.6115 39.8424 54.8303 39.8424 53.8695V25.3958L31.8619 18.1456H13.1992Z" fill="#005CB9"/>
<path d="M41.0124 26.0552H34.1274C32.4776 26.0552 31.1363 24.7174 31.1363 23.0736V16.965C31.1363 16.3126 31.6645 15.7832 32.3181 15.7832C32.9716 15.7832 33.4998 16.3126 33.4998 16.965V23.0736C33.4998 23.4151 33.7811 23.6917 34.1274 23.6917H41.0124C41.6659 23.6917 42.1942 24.2211 42.1942 24.8734C42.1942 25.5258 41.6659 26.0552 41.0124 26.0552Z" fill="#005CB9"/>
<path d="M44.113 69.2984H27.652C26.9985 69.2984 26.4702 68.769 26.4702 68.1166C26.4702 67.4643 26.9985 66.9349 27.652 66.9349H44.113C47.1584 66.9349 49.6366 64.4732 49.6366 61.4479V54.5392C49.6366 53.8869 50.1649 53.3574 50.8184 53.3574C51.4719 53.3574 52.0002 53.8869 52.0002 54.5392V61.4491C52.0002 65.7767 48.4619 69.2984 44.113 69.2984Z" fill="#00D37C"/>
<path d="M31.1977 73.2811C30.933 73.2811 30.6683 73.1925 30.4473 73.0117L25.5736 68.9972C25.3006 68.7714 25.1423 68.4346 25.1434 68.0801C25.1446 67.7256 25.3053 67.3899 25.5807 67.1666L30.4544 63.2147C30.9625 62.8035 31.707 62.8826 32.1159 63.3884C32.5284 63.8954 32.4492 64.64 31.9434 65.0512L28.1924 68.0919L31.9505 71.187C32.4551 71.6018 32.526 72.3463 32.1112 72.8509C31.8784 73.1346 31.5392 73.2811 31.1977 73.2811Z" fill="#00D37C"/>
<path d="M1.18178 19.9285C0.528255 19.9285 0 19.3991 0 18.7467V11.8369C0 7.50803 3.53824 3.98633 7.88719 3.98633H24.3482C25.0017 3.98633 25.53 4.51576 25.53 5.16811C25.53 5.82045 25.0017 6.34988 24.3482 6.34988H7.88719C4.84174 6.35107 2.36356 8.81153 2.36356 11.8369V18.7467C2.36356 19.3991 1.8353 19.9285 1.18178 19.9285Z" fill="#00D37C"/>
<path d="M20.8036 10.33C20.4597 10.33 20.1181 10.1811 19.8853 9.89272C19.4729 9.38574 19.5521 8.64122 20.0579 8.22996L23.8088 5.18924L20.0508 2.09417C19.5462 1.67936 19.4753 0.93484 19.8901 0.430221C20.3037 -0.0732163 21.047 -0.145305 21.5528 0.269499L26.4265 4.284C26.6995 4.50972 26.8578 4.84653 26.8566 5.20106C26.8555 5.55559 26.6947 5.89122 26.4194 6.11457L21.5457 10.0664C21.3271 10.2437 21.0636 10.33 20.8036 10.33Z" fill="#00D37C"/>
<path d="M51.997 51.5747H49.6334V49.2112H51.997V51.5747ZM51.997 46.8476H49.6334V44.4841H51.997V46.8476ZM51.997 42.1205H49.6334V39.7569H51.997V42.1205ZM51.997 37.3934H49.6334V35.0298H51.997V37.3934ZM51.997 32.6663H49.6334V30.3027H51.997V32.6663ZM51.997 27.9392H49.6334V25.5756H51.997V27.9392ZM51.997 23.2121H49.6334V20.8485H51.997V23.2121ZM51.997 18.4849H49.6334V16.1214H51.997V18.4849ZM51.997 13.7578H49.6334V11.3943H51.997V13.7578ZM49.3013 9.48689C49.078 8.87827 48.7483 8.31456 48.3228 7.81467L50.125 6.28427C50.7301 6.99806 51.1993 7.80167 51.5195 8.67264L49.3013 9.48689ZM46.8291 6.58089C46.2618 6.25945 45.6461 6.04319 45.0009 5.93801L45.3837 3.60518C46.3032 3.75645 47.1812 4.06489 47.9919 4.5246L46.8291 6.58089ZM42.8358 5.86356H40.4723V3.5H42.8358V5.86356ZM38.1087 5.86356H35.7452V3.5H38.1087V5.86356ZM33.3816 5.86356H31.0181V3.5H33.3816V5.86356ZM28.6545 5.86356H27.6488V3.5H28.6545V5.86356Z" fill="#005CB9"/>
<path d="M25.1104 69.2948H22.9076V66.9312H25.1104V69.2948ZM20.544 69.2948H18.1805V66.9312H20.544V69.2948ZM15.8169 69.2948H13.4534V66.9312H15.8169V69.2948ZM11.0898 69.2948H8.72625V66.9312H11.0898V69.2948ZM6.10979 69.0903C5.20337 68.8812 4.34894 68.516 3.56779 68.0055L4.86302 66.0272C5.41018 66.3852 6.00934 66.6417 6.64396 66.7882L6.10979 69.0903ZM1.55404 66.1123C0.995057 65.363 0.579071 64.5299 0.315535 63.6352L2.58455 62.9699C2.76654 63.5939 3.05726 64.1753 3.44843 64.6988L1.55404 66.1123ZM2.36356 60.9656H0V58.6021H2.36356V60.9656ZM2.36356 56.2385H0V53.8749H2.36356V56.2385ZM2.36356 51.5114H0V49.1478H2.36356V51.5114ZM2.36356 46.7843H0V44.4207H2.36356V46.7843ZM2.36356 42.0572H0V39.6936H2.36356V42.0572ZM2.36356 37.33H0V34.9665H2.36356V37.33ZM2.36356 32.6029H0V30.2394H2.36356V32.6029ZM2.36356 27.8758H0V25.5123H2.36356V27.8758ZM2.36356 23.1487H0V20.7852H2.36356V23.1487Z" fill="#005CB9"/>
<path d="M35.7395 50.6272H16.2686C15.615 50.6272 15.0868 50.0978 15.0868 49.4454C15.0868 48.7931 15.615 48.2637 16.2686 48.2637H35.7407C36.3942 48.2637 36.9225 48.7931 36.9225 49.4454C36.9225 50.0978 36.3931 50.6272 35.7395 50.6272Z" fill="#005CB9"/>
<path d="M35.7395 44.8577H16.2686C15.615 44.8577 15.0868 44.3283 15.0868 43.6759C15.0868 43.0236 15.615 42.4941 16.2686 42.4941H35.7407C36.3942 42.4941 36.9225 43.0236 36.9225 43.6759C36.9225 44.3283 36.3931 44.8577 35.7395 44.8577Z" fill="#005CB9"/>
<path d="M35.7395 33.3304H16.2686C15.615 33.3304 15.0868 32.8009 15.0868 32.1486C15.0868 31.4962 15.615 30.9668 16.2686 30.9668H35.7407C36.3942 30.9668 36.9225 31.4962 36.9225 32.1486C36.9225 32.8009 36.3931 33.3304 35.7395 33.3304Z" fill="#005CB9"/>
<path d="M35.7395 39.096H16.2686C15.615 39.096 15.0868 38.5665 15.0868 37.9142C15.0868 37.2619 15.615 36.7324 16.2686 36.7324H35.7407C36.3942 36.7324 36.9225 37.2619 36.9225 37.9142C36.9225 38.5665 36.3931 39.096 35.7395 39.096Z" fill="#005CB9"/>
</svg>
