<svg width="58" height="72" viewBox="0 0 58 72" fill="none" xmlns="http://www.w3.org/2000/svg">
<path fill-rule="evenodd" clip-rule="evenodd" d="M27.6669 0.842788V3.48858C20.5153 3.69224 13.7053 6.59339 8.60397 11.6097C3.26678 16.8381 0.180041 23.9424 0.000338426 31.4116C-0.00568061 31.6235 0.0687758 31.8299 0.20873 31.9891C0.348685 32.1484 0.543753 32.2487 0.754696 32.27C0.96564 32.2913 1.17681 32.2318 1.34572 32.1037C1.51463 31.9756 1.62876 31.7883 1.66514 31.5794C2.02254 29.6865 3.04199 27.9826 4.54101 26.7727C6.05928 25.5381 7.95674 24.8646 9.91362 24.8658C11.8705 24.867 13.7672 25.5427 15.284 26.7791C16.8363 28.0384 17.9268 29.7773 18.3843 31.7232C18.4256 31.9094 18.5289 32.076 18.6773 32.1958C18.8256 32.3157 19.0103 32.3816 19.201 32.3828C19.3917 32.384 19.5772 32.3204 19.727 32.2025C19.8769 32.0845 19.9823 31.9192 20.0259 31.7336C20.4823 29.7842 21.5738 28.0419 23.1287 26.7807C24.4265 25.726 26.0053 25.0753 27.6693 24.909V32.4038C25.7097 34.372 23.3155 35.8527 20.6793 36.7268C18.0431 37.6009 15.2385 37.844 12.4912 37.4366C12.3815 37.4199 12.2696 37.4252 12.162 37.4519C12.0543 37.4787 11.953 37.5265 11.8639 37.5926C11.7748 37.6587 11.6997 37.7417 11.6428 37.837C11.5859 37.9322 11.5485 38.0378 11.5326 38.1475C11.5265 38.1877 11.5235 38.2283 11.5238 38.269C11.5238 40.5145 11.4814 42.415 11.4439 44.198C11.1411 57.7138 10.9789 64.9442 28.2006 71.8383C28.401 71.919 28.6249 71.919 28.8253 71.8383C46.0429 64.9458 45.8808 57.7138 45.5788 44.198C45.5388 42.415 45.4989 40.5145 45.4989 38.269C45.4991 38.1438 45.4714 38.0202 45.4178 37.9071C45.3643 37.794 45.2862 37.6942 45.1893 37.6151C45.0924 37.5359 44.979 37.4793 44.8575 37.4494C44.736 37.4195 44.6094 37.417 44.4868 37.4422C41.7453 37.8423 38.9482 37.5948 36.3196 36.7196C33.691 35.8444 31.3038 34.3658 29.3493 32.4022V24.9074C31.0135 25.0733 32.5923 25.7241 33.89 26.7791C35.4423 28.0384 36.5328 29.7773 36.9903 31.7232C37.0316 31.9094 37.1349 32.076 37.2833 32.1958C37.4317 32.3157 37.6163 32.3816 37.807 32.3828C37.9977 32.384 38.1832 32.3204 38.3331 32.2025C38.4829 32.0845 38.5883 31.9192 38.632 31.7336C39.088 29.784 40.1795 28.0416 41.7347 26.7807C43.2515 25.5443 45.1482 24.8686 47.1051 24.8674C49.0619 24.8662 50.9594 25.5397 52.4777 26.7743C53.9716 27.9819 54.9887 29.6803 55.3479 31.5674C55.3822 31.777 55.4947 31.9658 55.6626 32.0958C55.8305 32.2258 56.0415 32.2873 56.253 32.268C56.4645 32.2486 56.6608 32.1499 56.8024 31.9915C56.9439 31.8332 57.0203 31.6272 57.0159 31.4148C56.8362 23.9456 53.7495 16.8413 48.4123 11.6129C43.3122 6.59615 36.5035 3.6939 29.3525 3.48858V0.842788C29.3525 0.619267 29.2637 0.4049 29.1057 0.246847C28.9476 0.0887935 28.7333 0 28.5097 0C28.2862 0 28.0718 0.0887935 27.9138 0.246847C27.7557 0.4049 27.6669 0.619267 27.6669 0.842788ZM29.3525 5.73575C31.1811 6.33489 32.8842 8.85127 34.2255 12.6171C35.786 17.3948 36.6525 22.3718 36.7986 27.3958C36.2655 26.6787 35.6441 26.0316 34.9493 25.4698C33.3545 24.173 31.4056 23.3876 29.3573 23.2162V5.73575H29.3525ZM27.6669 23.2154C25.6187 23.3868 23.6697 24.1722 22.075 25.469C21.3791 26.032 20.7572 26.6808 20.2241 27.3998C20.3702 22.3758 21.2367 17.3988 22.7972 12.621C24.1352 8.85686 25.8376 6.33888 27.6701 5.73975V23.2154H27.6669ZM18.5177 27.8703C17.9171 26.9629 17.1808 26.153 16.3344 25.469C14.5182 23.9887 12.2468 23.1803 9.9037 23.1803C7.56059 23.1803 5.28922 23.9887 3.47294 25.469C3.02134 25.8377 2.603 26.2453 2.22274 26.6872C3.30095 21.4094 5.93403 16.575 9.78307 12.8064C13.9503 8.71243 19.3465 6.10006 25.1426 5.37068C23.6136 6.75509 22.2731 9.06696 21.2106 12.0579C19.5433 17.1683 18.6359 22.496 18.5177 27.8703ZM31.8769 5.37068C37.6733 6.10011 43.0699 8.71278 47.2372 12.8072C51.086 16.576 53.719 21.4103 54.7975 26.688C54.4173 26.2461 53.9989 25.8385 53.5473 25.4698C51.7311 23.9895 49.4597 23.1811 47.1166 23.1811C44.7735 23.1811 42.5021 23.9895 40.6858 25.4698C39.8392 26.1538 39.1026 26.9636 38.5018 27.8711C38.3836 22.4979 37.4763 17.1712 35.8088 12.0619C34.7464 9.07096 33.4059 6.75908 31.8769 5.37467V5.37068ZM28.5097 33.9296C26.4895 35.8607 24.0765 37.3332 21.4353 38.2467C18.7941 39.1602 15.9869 39.4931 13.2053 39.2228C13.1942 40.9052 13.1558 42.6139 13.1191 44.234C12.8355 56.9094 12.6853 63.7259 28.5097 70.1503C44.3334 63.7291 44.184 56.9094 43.8996 44.234C43.8637 42.6139 43.8253 40.9052 43.8141 39.2228C41.0325 39.4931 38.2254 39.1602 35.5842 38.2467C32.943 37.3332 30.5299 35.8607 28.5097 33.9296Z" fill="#005CB9"/>
<path fill-rule="evenodd" clip-rule="evenodd" d="M17.6265 51.9196C17.6265 45.9633 22.455 41.1348 28.4113 41.1348C34.3676 41.1348 39.1961 45.9633 39.1961 51.9196C39.1961 57.8759 34.3676 62.7044 28.4113 62.7044C22.455 62.7044 17.6265 57.8759 17.6265 51.9196ZM32.4048 49.913C32.6711 49.5401 32.5847 49.022 32.2119 48.7557C31.8391 48.4894 31.3209 48.5758 31.0546 48.9486L27.4758 53.9589L25.6795 52.1626C25.3555 51.8386 24.8302 51.8386 24.5063 52.1626C24.1823 52.4866 24.1823 53.0118 24.5063 53.3358L26.9951 55.8246C27.1675 55.997 27.4071 56.0849 27.6501 56.0648C27.8931 56.0447 28.115 55.9186 28.2568 55.7202L32.4048 49.913Z" fill="#00D37C"/>
</svg>
