<svg width="229" height="229" viewBox="0 0 229 229" fill="none" xmlns="http://www.w3.org/2000/svg">
<path d="M142.811 47.4271C149.614 53.1628 156.275 59.2843 162.757 65.7529C219.189 122.198 245.165 188.98 217.079 217.079C200.592 233.553 170.872 231.688 136.624 214.957C132.547 212.964 130.849 208.026 132.843 203.949C134.836 199.859 139.774 198.175 143.851 200.168C172.491 214.16 195.279 215.588 205.439 205.441C224.485 186.382 201.825 128.1 151.117 77.4036C144.97 71.2564 138.643 65.4436 132.2 60.0167C128.727 57.0975 128.29 51.9021 131.21 48.4298C134.142 44.9447 139.339 44.5079 142.811 47.4271ZM180.092 131.365C183.564 134.31 183.989 139.506 181.044 142.965C175.449 149.562 169.341 156.172 162.756 162.757C106.311 219.189 39.5288 245.164 11.4429 217.078C-5.03102 200.604 -3.17915 170.912 13.5391 136.676C15.5324 132.599 20.458 130.902 24.5344 132.895C28.624 134.889 30.3215 139.814 28.3281 143.904C14.349 172.518 12.9343 195.292 23.0809 205.438C42.127 224.484 100.408 201.825 151.118 151.117C157.394 144.841 163.194 138.565 168.492 132.315C171.437 128.856 176.62 128.433 180.092 131.365ZM91.831 13.5272C95.9077 15.5206 97.6052 20.459 95.6118 24.5357C93.6184 28.6253 88.6928 30.3228 84.6033 28.3293C55.9893 14.3503 33.2283 12.9356 23.0784 23.0822C4.0194 42.1283 26.6922 100.41 77.3999 151.12C83.5214 157.254 89.8356 163.041 96.2659 168.455C99.7382 171.387 100.175 176.583 97.2561 180.055C94.324 183.527 89.1283 183.977 85.6564 181.045C78.8662 175.335 72.2175 169.213 65.7487 162.758C9.31684 106.313 -16.6587 39.5303 11.4403 11.4445C27.9014 -5.02939 57.5985 -3.17815 91.831 13.5272ZM114.696 85.6859C116.381 86.1231 117.667 87.4349 118.078 89.1197L121.487 103.343C122.078 105.799 123.956 107.754 126.399 108.436L138.951 111.959C141.253 112.602 142.59 114.982 141.947 117.284C141.523 118.788 140.314 119.958 138.796 120.319L126.901 123.173C124.29 123.804 122.284 125.861 121.705 128.485L118.169 144.702C117.642 147.171 115.198 148.74 112.729 148.2C110.98 147.814 109.617 146.451 109.244 144.702L105.707 128.51C105.142 125.874 103.097 123.816 100.486 123.199L88.1662 120.293C85.8256 119.753 84.3854 117.412 84.9383 115.072C85.2984 113.528 86.4686 112.307 87.9861 111.882L100.37 108.41C102.762 107.741 104.627 105.851 105.245 103.446L109 89.0298C109.643 86.5349 112.201 85.0301 114.696 85.6859ZM217.078 11.4433C233.564 27.93 231.713 57.7284 214.969 92.0135C212.975 96.1031 208.037 97.7877 203.96 95.7943C199.87 93.8009 198.173 88.8754 200.179 84.7858C214.184 56.1077 215.612 33.2561 205.439 23.0832C186.38 4.02426 128.099 26.697 77.4018 77.4046C71.2289 83.5647 65.3905 89.9177 59.9504 96.3862C57.0183 99.8714 51.8357 100.309 48.3506 97.3893C44.8783 94.4572 44.4283 89.2747 47.3604 85.7895C53.0961 78.9608 59.2561 72.2605 65.7504 65.7535C122.195 9.32171 188.979 -16.6558 217.078 11.4433Z" fill="#005CB9"/>
</svg>
